# xmcd CD database file
# Copyright (C) 1995-1998 Ti Kan
#
# Track frame offsets:
#	182
#	12362
#	25420
#	39297
#	50952
#	61075
#	70112
#	81725
#	100592
#	110685
#	122012
#	131055
#	146102
#	160610
#	180385
#	190897
#	206930
#	222547
#
# Disc length: 3184 seconds
#
# Revision: 3
# Processed by: cddbd v1.4PL0 Copyright (c) Steve Scherf et al.
# Submitted via: CDex 1.30Release
#
DISCID=0f0c6e12
DTITLE=Lyle Lovett - I Love Everybody
DYEAR=1994
DGENRE=Country
TTITLE0=Skinny Legs
TTITLE1=Fat Babies
TTITLE2=I Think You Know What I Mean
TTITLE3=Hello Grandma
TTITLE4=Creeps Like Me
TTITLE5=Sonja
TTITLE6=They Don't Like Me
TTITLE7=Record Lady
TTITLE8=Ain't It Somethin'
TTITLE9=Penguins
TTITLE10=The Fat Girl
TTITLE11=Lo to the Left
TTITLE12=Old Friend
TTITLE13=Just the Morning
TTITLE14=Moon on My Shoulder
TTITLE15=I've Got the Blues
TTITLE16=Good-bye to Carolina
TTITLE17=I Love Everybody
EXTD=YEAR: 1994 ID3G:   2
EXTT0=
EXTT1=
EXTT2=
EXTT3=
EXTT4=
EXTT5=
EXTT6=
EXTT7=
EXTT8=
EXTT9=
EXTT10=
EXTT11=
EXTT12=
EXTT13=
EXTT14=
EXTT15=
EXTT16=
EXTT17=
PLAYORDER=
